<svg xmlns="http://www.w3.org/2000/svg" viewBox="0 0 512 512" width="28" height="28">
  <defs>
    <linearGradient id="grad-retro" x1="0%" y1="100%" x2="100%" y2="0%">
      <stop offset="0%" style="stop-color:#4285F4; stop-opacity:1" />   <stop offset="33%" style="stop-color:#DB4437; stop-opacity:1" />  <stop offset="66%" style="stop-color:#F4B400; stop-opacity:1" />  <stop offset="100%" style="stop-color:#0F9D58; stop-opacity:1" /> </linearGradient>
  </defs>

  <path fill="url(#grad-retro)" d="M48 32C21.5 32 0 53.5 0 80v352c0 26.5 21.5 48 48 48h416c26.5 0 48-21.5 48-48V80c0-26.5-21.5-48-48-48H48zm0 32h106c3.3 0 6 2.7 6 6v20c0 3.3-2.7 6-6 6H38c-3.3 0-6-2.7-6-6V80c0-8.8 7.2-16 16-16zm426 96H38c-3.3 0-6-2.7-6-6v-36c0-3.3 2.7-6 6-6h438c3.3 0 6 2.7 6 6v36c0 3.3-2.7 6-6 6zM256 448c-84 0-152-68-152-152s68-152 152-152 152 68 152 152-68 152-152 152zm0-256c-57.3 0-104 46.7-104 104s46.7 104 104 104 104-46.7 104-104-46.7-104-104-104z"/>
</svg>